<svg width="80" height="411" viewBox="0 0 80 411" fill="none" xmlns="http://www.w3.org/2000/svg">
<path d="M68.2357 5.8131C68.2347 4.66509 68.5468 3.54252 69.1326 2.58752C69.7184 1.63252 70.5513 0.888039 71.5261 0.448301C72.5009 0.00856176 73.5737 -0.106648 74.6087 0.117263C75.6436 0.341175 76.5942 0.894127 77.34 1.70613C78.0858 2.51813 78.5932 3.55267 78.7983 4.67876C79.0033 5.80485 78.8967 6.97185 78.4917 8.03204C78.0868 9.09223 77.4018 9.99792 76.5235 10.6345C75.6452 11.271 74.6133 11.6097 73.5581 11.6078C72.8585 11.6087 72.1657 11.4593 71.5193 11.1684C70.873 10.8774 70.2857 10.4506 69.7913 9.91225C69.2968 9.37395 68.905 8.73478 68.6381 8.03137C68.3711 7.32797 68.2344 6.57415 68.2357 5.8131Z" fill="#547DBF"/>
<path d="M34.1208 5.85021C34.1198 4.7022 34.432 3.57963 35.0177 2.62463C35.6035 1.66963 36.4366 0.925149 37.4114 0.48541C38.3862 0.0456711 39.4588 -0.069538 40.4938 0.154373C41.5287 0.378284 42.4793 0.931236 43.2251 1.74324C43.971 2.55524 44.4785 3.58978 44.6836 4.71587C44.8886 5.84196 44.7818 7.00896 44.3769 8.06915C43.9719 9.12934 43.2871 10.035 42.4088 10.6716C41.5305 11.3081 40.4984 11.6468 39.4432 11.6449C38.0316 11.6424 36.6786 11.031 35.6808 9.94469C34.6831 8.85842 34.1221 7.38597 34.1208 5.85021Z" fill="#547DBF"/>
<path d="M68.2674 40.8463C68.2664 39.6983 68.5786 38.5757 69.1643 37.6207C69.7501 36.6657 70.583 35.9212 71.5578 35.4815C72.5326 35.0417 73.6055 34.9265 74.6404 35.1504C75.6753 35.3743 76.6259 35.9273 77.3718 36.7393C78.1176 37.5513 78.625 38.5859 78.83 39.712C79.035 40.8381 78.9284 42.0051 78.5235 43.0652C78.1185 44.1254 77.4335 45.0311 76.5552 45.6677C75.677 46.3042 74.645 46.6429 73.5898 46.641C72.8903 46.6419 72.1974 46.4925 71.5511 46.2016C70.9047 45.9106 70.3174 45.4837 69.823 44.9454C69.3286 44.4071 68.9368 43.768 68.6698 43.0646C68.4029 42.3612 68.2661 41.6074 68.2674 40.8463Z" fill="#547DBF"/>
<path d="M34.153 40.8824C34.1521 39.7344 34.4642 38.6119 35.0499 37.6569C35.6357 36.7019 36.4688 35.9573 37.4436 35.5176C38.4184 35.0778 39.4911 34.9626 40.526 35.1866C41.5609 35.4105 42.5115 35.9635 43.2574 36.7755C44.0032 37.5875 44.5108 38.622 44.7158 39.7481C44.9208 40.8742 44.814 42.0412 44.4091 43.1014C44.0041 44.1616 43.3193 45.0673 42.441 45.7038C41.5628 46.3403 40.5307 46.6791 39.4754 46.6772C38.0638 46.6746 36.7108 46.0631 35.7131 44.9769C34.7153 43.8906 34.1543 42.4182 34.153 40.8824Z" fill="#547DBF"/>
<path d="M0.038258 40.9196C0.0372951 39.7722 0.34919 38.6503 0.934297 37.6956C1.5194 36.741 2.3515 35.9964 3.32546 35.5562C4.29942 35.116 5.37152 34.9999 6.40605 35.2225C7.44058 35.4451 8.39101 35.9965 9.13741 36.8069C9.88381 37.6173 10.3926 38.6504 10.5992 39.7754C10.8059 40.9004 10.7013 42.0669 10.2986 43.1274C9.89592 44.1879 9.21334 45.0947 8.337 45.7332C7.46066 46.3716 6.42993 46.713 5.37533 46.7143C3.96115 46.7159 2.6044 46.1064 1.60351 45.0196C0.602614 43.9329 0.0395492 42.4581 0.038258 40.9196Z" fill="#547DBF"/>
<path d="M68.2996 75.8785C68.2987 74.7305 68.6108 73.6079 69.1966 72.6529C69.7823 71.6979 70.6152 70.9534 71.5901 70.5137C72.5649 70.0739 73.6377 69.9587 74.6726 70.1826C75.7075 70.4066 76.6582 70.9595 77.404 71.7715C78.1498 72.5835 78.6572 73.618 78.8622 74.7441C79.0673 75.8702 78.9606 77.0373 78.5557 78.0975C78.1508 79.1577 77.4657 80.0633 76.5875 80.6999C75.7092 81.3364 74.6773 81.6752 73.622 81.6733C72.9225 81.6741 72.2297 81.5247 71.5833 81.2338C70.937 80.9428 70.3496 80.5159 69.8552 79.9776C69.3608 79.4393 68.969 78.8002 68.7021 78.0968C68.4351 77.3933 68.2983 76.6395 68.2996 75.8785Z" fill="#547DBF"/>
<path d="M34.1848 75.9156C34.1838 74.7676 34.4959 73.645 35.0817 72.69C35.6674 71.735 36.5005 70.9905 37.4754 70.5508C38.4502 70.1111 39.5228 69.9958 40.5577 70.2198C41.5927 70.4437 42.5433 70.9966 43.2891 71.8086C44.0349 72.6206 44.5425 73.6552 44.7475 74.7813C44.9526 75.9073 44.8458 77.0744 44.4408 78.1346C44.0359 79.1948 43.351 80.1005 42.4728 80.737C41.5945 81.3735 40.5624 81.7123 39.5072 81.7104C38.0955 81.7078 36.7425 81.0963 35.7448 80.0101C34.7471 78.9238 34.186 77.4514 34.1848 75.9156Z" fill="#547DBF"/>
<path d="M0.0704845 75.9517C0.0695216 74.8044 0.381417 73.6825 0.966524 72.7278C1.55163 71.7732 2.38372 71.0287 3.35769 70.5885C4.33165 70.1482 5.40375 70.0321 6.43828 70.2547C7.47281 70.4774 8.42324 71.0287 9.16964 71.8391C9.91604 72.6495 10.4248 73.6826 10.6315 74.8076C10.8382 75.9327 10.7335 77.0992 10.3308 78.1596C9.92814 79.2201 9.24557 80.1269 8.36923 80.7654C7.49289 81.4038 6.46216 81.7453 5.40755 81.7465C3.99337 81.7482 2.63662 81.1386 1.63573 80.0519C0.63484 78.9651 0.0717757 77.4903 0.0704845 75.9517Z" fill="#547DBF"/>
<path d="M68.3314 110.91C68.3304 109.762 68.6425 108.639 69.2283 107.684C69.8141 106.729 70.647 105.985 71.6218 105.545C72.5966 105.105 73.6694 104.99 74.7044 105.214C75.7393 105.438 76.6899 105.991 77.4357 106.803C78.1815 107.615 78.6889 108.649 78.894 109.775C79.099 110.902 78.9924 112.069 78.5874 113.129C78.1825 114.189 77.4975 115.095 76.6192 115.731C75.741 116.368 74.709 116.706 73.6538 116.705C72.9542 116.705 72.2614 116.556 71.6151 116.265C70.9687 115.974 70.3814 115.547 69.887 115.009C69.3925 114.471 69.0007 113.831 68.7338 113.128C68.4668 112.425 68.3301 111.671 68.3314 110.91Z" fill="#547DBF"/>
<path d="M34.217 110.946C34.216 109.798 34.5282 108.675 35.1139 107.72C35.6997 106.765 36.5328 106.021 37.5076 105.581C38.4824 105.141 39.555 105.026 40.59 105.25C41.6249 105.474 42.5755 106.027 43.3213 106.839C44.0671 107.651 44.5747 108.685 44.7798 109.812C44.9848 110.938 44.878 112.105 44.473 113.165C44.0681 114.225 43.3833 115.131 42.505 115.767C41.6267 116.404 40.5946 116.743 39.5394 116.741C38.1277 116.738 36.7748 116.127 35.777 115.04C34.7793 113.954 34.2183 112.482 34.217 110.946Z" fill="#547DBF"/>
<path d="M0.102253 110.984C0.086793 109.834 0.38545 108.706 0.960367 107.742C1.53529 106.777 2.36061 106.02 3.33147 105.567C4.30234 105.114 5.37499 104.984 6.41347 105.195C7.45194 105.406 8.40942 105.948 9.16429 106.752C9.91917 107.556 10.4375 108.586 10.6535 109.711C10.8695 110.836 10.7735 112.005 10.3775 113.071C9.98158 114.137 9.30349 115.05 8.42952 115.696C7.55555 116.342 6.52501 116.691 5.46858 116.699C4.06194 116.709 2.70871 116.114 1.70359 115.043C0.698466 113.973 0.122838 112.514 0.102253 110.984Z" fill="#547DBF"/>
<path d="M68.3636 145.942C68.3626 144.794 68.6748 143.671 69.2605 142.716C69.8463 141.761 70.6792 141.017 71.654 140.577C72.6288 140.137 73.7017 140.022 74.7366 140.246C75.7715 140.47 76.7221 141.023 77.4679 141.835C78.2138 142.647 78.7212 143.682 78.9262 144.808C79.1312 145.934 79.0246 147.101 78.6197 148.161C78.2147 149.221 77.5297 150.127 76.6514 150.763C75.7732 151.4 74.7412 151.739 73.686 151.737C72.9859 151.74 72.2922 151.592 71.645 151.302C70.9977 151.011 70.4097 150.585 69.9149 150.046C69.4201 149.507 69.0284 148.867 68.7621 148.163C68.4958 147.458 68.3604 146.704 68.3636 145.942Z" fill="#547DBF"/>
<path d="M34.2487 145.979C34.2478 144.831 34.5599 143.709 35.1457 142.754C35.7314 141.799 36.5645 141.054 37.5393 140.614C38.5141 140.175 39.5868 140.059 40.6217 140.283C41.6566 140.507 42.6073 141.06 43.3531 141.872C44.0989 142.684 44.6065 143.719 44.8115 144.845C45.0165 145.971 44.9097 147.138 44.5048 148.198C44.0998 149.258 43.415 150.164 42.5367 150.8C41.6585 151.437 40.6264 151.776 39.5711 151.774C38.8716 151.775 38.1788 151.625 37.5324 151.334C36.886 151.043 36.2989 150.617 35.8045 150.078C35.3101 149.54 34.9181 148.901 34.6511 148.197C34.3842 147.494 34.2474 146.74 34.2487 145.979Z" fill="#547DBF"/>
<path d="M0.134724 146.016C0.125079 144.868 0.428827 143.743 1.00733 142.783C1.58583 141.822 2.41308 141.07 3.38453 140.622C4.35597 140.173 5.4278 140.049 6.46438 140.263C7.50097 140.478 8.45577 141.022 9.20771 141.828C9.95965 142.633 10.4749 143.663 10.6885 144.787C10.9021 145.911 10.8042 147.079 10.4073 148.143C10.0105 149.207 9.33255 150.118 8.45916 150.763C7.58577 151.407 6.55628 151.755 5.50108 151.763C4.80155 151.77 4.10753 151.627 3.45897 151.342C2.81041 151.057 2.2201 150.635 1.7216 150.101C1.22309 149.567 0.826232 148.932 0.553946 148.231C0.281659 147.53 0.139193 146.777 0.134724 146.016Z" fill="#547DBF"/>
<path d="M68.3929 178.297C68.389 177.148 68.6987 176.024 69.2827 175.067C69.8667 174.11 70.6986 173.363 71.6731 172.921C72.6477 172.478 73.721 172.361 74.7569 172.583C75.7928 172.805 76.7448 173.357 77.4921 174.168C78.2393 174.98 78.7482 176.014 78.9544 177.141C79.1606 178.267 79.0549 179.435 78.6504 180.496C78.2459 181.557 77.5609 182.464 76.6823 183.101C75.8038 183.738 74.7712 184.078 73.7153 184.076C72.305 184.077 70.9518 183.469 69.9537 182.386C68.9555 181.302 68.3942 179.831 68.3929 178.297Z" fill="#547DBF"/>
<path d="M34.279 178.334C34.2751 177.185 34.5848 176.061 35.1688 175.104C35.7528 174.147 36.5848 173.4 37.5594 172.958C38.534 172.516 39.6071 172.398 40.643 172.62C41.6789 172.842 42.6309 173.394 43.3781 174.205C44.1254 175.017 44.6345 176.051 44.8407 177.178C45.0469 178.304 44.941 179.472 44.5365 180.533C44.132 181.594 43.447 182.501 42.5684 183.138C41.6899 183.775 40.6573 184.115 39.6014 184.113C38.1923 184.11 36.8415 183.501 35.8442 182.418C34.8469 181.335 34.2842 179.867 34.279 178.334Z" fill="#547DBF"/>
<path d="M0.16375 178.37C0.159887 177.222 0.469293 176.099 1.05263 175.142C1.63597 174.185 2.46705 173.438 3.44075 172.995C4.41445 172.553 5.48692 172.434 6.52241 172.655C7.5579 172.876 8.50984 173.426 9.2577 174.236C10.0056 175.046 10.5158 176.079 10.7236 177.204C10.9315 178.33 10.8278 179.497 10.4255 180.558C10.0233 181.62 9.34056 182.527 8.46391 183.167C7.58726 183.806 6.55604 184.148 5.50081 184.149C4.08916 184.151 2.73464 183.543 1.73417 182.46C0.733707 181.377 0.168918 179.906 0.16375 178.37Z" fill="#547DBF"/>
<path d="M68.4227 210.668C68.4217 209.52 68.7339 208.397 69.3196 207.442C69.9054 206.487 70.7383 205.743 71.7131 205.303C72.6879 204.863 73.7607 204.748 74.7957 204.972C75.8306 205.196 76.7812 205.749 77.527 206.561C78.2728 207.373 78.7803 208.407 78.9853 209.533C79.1903 210.659 79.0837 211.826 78.6787 212.887C78.2738 213.947 77.5888 214.852 76.7105 215.489C75.8323 216.125 74.8003 216.464 73.7451 216.462C73.0455 216.463 72.3527 216.314 71.7064 216.023C71.06 215.732 70.4727 215.305 69.9783 214.767C69.4838 214.228 69.0921 213.589 68.8251 212.886C68.5581 212.182 68.4214 211.429 68.4227 210.668Z" fill="#547DBF"/>
<path d="M34.3083 210.705C34.3073 209.557 34.6195 208.434 35.2052 207.479C35.791 206.524 36.6241 205.78 37.5989 205.34C38.5737 204.9 39.6463 204.785 40.6813 205.009C41.7162 205.233 42.6668 205.786 43.4126 206.598C44.1585 207.41 44.666 208.444 44.8711 209.57C45.0761 210.696 44.9693 211.863 44.5644 212.924C44.1594 213.984 43.4746 214.89 42.5963 215.526C41.718 216.163 40.6859 216.501 39.6307 216.499C38.2191 216.497 36.8661 215.885 35.8683 214.799C34.8706 213.713 34.3096 212.24 34.3083 210.705Z" fill="#547DBF"/>
<path d="M0.193531 210.741C0.192568 209.594 0.504464 208.472 1.08957 207.517C1.67468 206.562 2.50677 205.818 3.48073 205.378C4.45469 204.937 5.5268 204.821 6.56133 205.044C7.59586 205.266 8.54629 205.818 9.29269 206.628C10.0391 207.439 10.5478 208.472 10.7545 209.597C10.9612 210.722 10.8566 211.888 10.4539 212.949C10.0512 214.009 9.36861 214.916 8.49227 215.554C7.61594 216.193 6.58521 216.534 5.5306 216.536C4.11642 216.537 2.75967 215.928 1.75878 214.841C0.757887 213.754 0.194823 212.279 0.193531 210.741Z" fill="#547DBF"/>
<path d="M68.452 242.974C68.451 241.826 68.7632 240.704 69.3489 239.749C69.9347 238.794 70.7676 238.049 71.7424 237.609C72.7172 237.17 73.79 237.054 74.825 237.278C75.8599 237.502 76.8105 238.055 77.5563 238.867C78.3021 239.679 78.8096 240.714 79.0146 241.84C79.2196 242.966 79.113 244.133 78.708 245.193C78.3031 246.253 77.6181 247.159 76.7398 247.796C75.8616 248.432 74.8296 248.771 73.7744 248.769C73.0748 248.77 72.382 248.62 71.7357 248.329C71.0893 248.039 70.502 247.612 70.0076 247.073C69.5131 246.535 69.1214 245.896 68.8544 245.192C68.5874 244.489 68.4507 243.735 68.452 242.974Z" fill="#547DBF"/>
<path d="M34.3376 243.01C34.3366 241.862 34.6488 240.74 35.2345 239.785C35.8203 238.83 36.6534 238.085 37.6282 237.646C38.603 237.206 39.6756 237.091 40.7106 237.314C41.7455 237.538 42.6961 238.091 43.4419 238.903C44.1877 239.715 44.6953 240.75 44.9004 241.876C45.1054 243.002 44.9986 244.169 44.5937 245.229C44.1887 246.289 43.5039 247.195 42.6256 247.832C41.7473 248.468 40.7152 248.807 39.66 248.805C38.2483 248.803 36.8954 248.191 35.8976 247.105C34.8999 246.019 34.3389 244.546 34.3376 243.01Z" fill="#547DBF"/>
<path d="M0.222828 243.048C0.221865 241.901 0.533761 240.779 1.11887 239.825C1.70397 238.87 2.53607 238.125 3.51003 237.685C4.48399 237.245 5.55609 237.129 6.59062 237.351C7.62515 237.574 8.57559 238.125 9.32198 238.936C10.0684 239.746 10.5771 240.779 10.7838 241.904C10.9905 243.029 10.8859 244.196 10.4832 245.256C10.0805 246.317 9.39791 247.224 8.52157 247.862C7.64523 248.501 6.6145 248.842 5.5599 248.843C4.14572 248.845 2.78897 248.235 1.78808 247.149C0.787184 246.062 0.224119 244.587 0.222828 243.048Z" fill="#547DBF"/>
<path d="M68.4813 275.313C68.4803 274.165 68.7924 273.042 69.3782 272.087C69.964 271.132 70.7969 270.388 71.7717 269.948C72.7465 269.509 73.8193 269.393 74.8543 269.617C75.8892 269.841 76.8398 270.394 77.5856 271.206C78.3314 272.018 78.8389 273.053 79.0439 274.179C79.2489 275.305 79.1423 276.472 78.7373 277.532C78.3324 278.592 77.6474 279.498 76.7691 280.134C75.8909 280.771 74.8589 281.11 73.8037 281.108C73.1036 281.111 72.4099 280.963 71.7626 280.673C71.1154 280.382 70.5274 279.956 70.0326 279.417C69.5378 278.878 69.146 278.238 68.8798 277.534C68.6135 276.83 68.478 276.075 68.4813 275.313Z" fill="#547DBF"/>
<path d="M34.3674 275.349C34.3664 274.201 34.6785 273.079 35.2643 272.124C35.8501 271.169 36.6832 270.424 37.658 269.984C38.6328 269.545 39.7054 269.429 40.7404 269.653C41.7753 269.877 42.7259 270.43 43.4717 271.242C44.2175 272.054 44.7251 273.089 44.9302 274.215C45.1352 275.341 45.0284 276.508 44.6234 277.568C44.2185 278.628 43.5337 279.534 42.6554 280.171C41.7771 280.807 40.745 281.146 39.6898 281.144C38.9902 281.145 38.2974 280.995 37.6511 280.704C37.0047 280.414 36.4176 279.987 35.9231 279.448C35.4287 278.91 35.0367 278.271 34.7698 277.567C34.5028 276.864 34.3661 276.11 34.3674 275.349Z" fill="#547DBF"/>
<path d="M0.252614 275.386C0.251651 274.239 0.563547 273.117 1.14865 272.162C1.73376 271.208 2.56585 270.463 3.53981 270.023C4.51378 269.583 5.58588 269.467 6.62041 269.689C7.65494 269.912 8.60537 270.463 9.35177 271.274C10.0982 272.084 10.6069 273.117 10.8136 274.242C11.0203 275.367 10.9157 276.534 10.513 277.594C10.1103 278.655 9.42769 279.561 8.55136 280.2C7.67502 280.838 6.64429 281.18 5.58968 281.181C4.88891 281.184 4.19454 281.036 3.54649 280.746C2.89844 280.456 2.30955 280.03 1.81357 279.491C1.3176 278.953 0.924338 278.313 0.656464 277.608C0.388591 276.904 0.25132 276.149 0.252614 275.386Z" fill="#547DBF"/>
<path d="M68.5111 307.652C68.5101 306.504 68.8222 305.381 69.408 304.426C69.9937 303.471 70.8267 302.727 71.8015 302.287C72.7763 301.847 73.8491 301.732 74.884 301.956C75.919 302.18 76.8696 302.733 77.6154 303.545C78.3612 304.357 78.8686 305.392 79.0737 306.518C79.2787 307.644 79.1721 308.811 78.7671 309.871C78.3622 310.931 77.6772 311.837 76.7989 312.473C75.9206 313.11 74.8887 313.449 73.8335 313.447C73.1339 313.448 72.4411 313.298 71.7947 313.007C71.1484 312.716 70.5611 312.289 70.0667 311.751C69.5722 311.213 69.1804 310.574 68.9135 309.87C68.6465 309.167 68.5098 308.413 68.5111 307.652Z" fill="#547DBF"/>
<path d="M34.3967 307.688C34.3957 306.54 34.7078 305.417 35.2936 304.462C35.8794 303.507 36.7125 302.763 37.6873 302.323C38.6621 301.884 39.7347 301.768 40.7697 301.992C41.8046 302.216 42.7552 302.769 43.501 303.581C44.2468 304.393 44.7544 305.428 44.9595 306.554C45.1645 307.68 45.0577 308.847 44.6527 309.907C44.2478 310.967 43.563 311.873 42.6847 312.509C41.8064 313.146 40.7743 313.485 39.7191 313.483C38.3074 313.48 36.9544 312.869 35.9567 311.783C34.959 310.696 34.398 309.224 34.3967 307.688Z" fill="#547DBF"/>
<path d="M0.28191 307.725C0.280947 306.578 0.592843 305.456 1.17795 304.501C1.76306 303.547 2.59515 302.802 3.56911 302.362C4.54307 301.922 5.61518 301.806 6.64971 302.028C7.68424 302.251 8.63467 302.802 9.38107 303.613C10.1275 304.423 10.6362 305.456 10.8429 306.581C11.0496 307.706 10.9449 308.873 10.5423 309.933C10.1396 310.994 9.45699 311.9 8.58065 312.539C7.70432 313.177 6.67359 313.519 5.61898 313.52C4.2048 313.522 2.84805 312.912 1.84716 311.825C0.846266 310.739 0.283201 309.264 0.28191 307.725Z" fill="#547DBF"/>
<path d="M68.5404 340.006C68.5394 338.858 68.8515 337.736 69.4373 336.781C70.023 335.826 70.856 335.081 71.8308 334.642C72.8056 334.202 73.8784 334.087 74.9133 334.311C75.9483 334.535 76.8989 335.087 77.6447 335.899C78.3905 336.711 78.8979 337.746 79.103 338.872C79.308 339.998 79.2014 341.165 78.7964 342.225C78.3915 343.286 77.7065 344.191 76.8282 344.828C75.9499 345.464 74.918 345.803 73.8628 345.801C73.1632 345.802 72.4704 345.653 71.824 345.362C71.1777 345.071 70.5904 344.644 70.0959 344.106C69.6015 343.567 69.2097 342.928 68.9428 342.225C68.6758 341.521 68.5391 340.767 68.5404 340.006Z" fill="#547DBF"/>
<path d="M34.426 340.044C34.425 338.896 34.7371 337.773 35.3229 336.818C35.9087 335.863 36.7417 335.118 37.7166 334.679C38.6914 334.239 39.764 334.124 40.7989 334.348C41.8339 334.572 42.7845 335.125 43.5303 335.937C44.2761 336.749 44.7837 337.783 44.9888 338.909C45.1938 340.035 45.087 341.202 44.682 342.263C44.2771 343.323 43.5923 344.228 42.714 344.865C41.8357 345.501 40.8036 345.84 39.7484 345.838C38.3367 345.836 36.9837 345.224 35.986 344.138C34.9883 343.052 34.4272 341.579 34.426 340.044Z" fill="#547DBF"/>
<path d="M0.311207 340.081C0.310244 338.933 0.622139 337.811 1.20725 336.857C1.79235 335.902 2.62445 335.158 3.59841 334.717C4.57237 334.277 5.64447 334.161 6.679 334.384C7.71353 334.606 8.66396 335.158 9.41036 335.968C10.1568 336.778 10.6655 337.811 10.8722 338.937C11.0789 340.062 10.9742 341.228 10.5716 342.289C10.1689 343.349 9.48629 344.256 8.60995 344.894C7.73361 345.533 6.70288 345.874 5.64828 345.875C4.2341 345.877 2.87734 345.267 1.87645 344.181C0.875563 343.094 0.312498 341.619 0.311207 340.081Z" fill="#547DBF"/>
<path d="M68.5697 372.344C68.5687 371.196 68.8808 370.074 69.4666 369.119C70.0523 368.164 70.8853 367.419 71.8601 366.98C72.8349 366.54 73.9077 366.425 74.9426 366.648C75.9776 366.872 76.9282 367.425 77.674 368.237C78.4198 369.049 78.9272 370.084 79.1323 371.21C79.3373 372.336 79.2307 373.503 78.8257 374.563C78.4208 375.623 77.7358 376.529 76.8575 377.166C75.9792 377.802 74.9473 378.141 73.8921 378.139C73.1925 378.14 72.4997 377.991 71.8533 377.7C71.207 377.409 70.6197 376.982 70.1252 376.443C69.6308 375.905 69.239 375.266 68.9721 374.563C68.7051 373.859 68.5684 373.105 68.5697 372.344Z" fill="#547DBF"/>
<path d="M34.4558 372.381C34.4548 371.233 34.7669 370.111 35.3527 369.156C35.9384 368.201 36.7715 367.456 37.7463 367.017C38.7212 366.577 39.7938 366.462 40.8287 366.686C41.8637 366.909 42.8143 367.462 43.5601 368.274C44.3059 369.086 44.8135 370.121 45.0185 371.247C45.2236 372.373 45.1168 373.54 44.7118 374.6C44.3069 375.661 43.622 376.566 42.7438 377.203C41.8655 377.839 40.8334 378.178 39.7782 378.176C38.3665 378.174 37.0135 377.562 36.0158 376.476C35.0181 375.39 34.457 373.917 34.4558 372.381Z" fill="#547DBF"/>
<path d="M0.341481 372.42C0.340518 371.272 0.652413 370.15 1.23752 369.196C1.82263 368.241 2.65472 367.496 3.62868 367.056C4.60264 366.616 5.67475 366.5 6.70928 366.723C7.74381 366.945 8.69424 367.497 9.44064 368.307C10.187 369.117 10.6958 370.15 10.9025 371.275C11.1092 372.4 11.0045 373.567 10.6018 374.627C10.1991 375.688 9.51656 376.595 8.64022 377.233C7.76389 377.872 6.73316 378.213 5.67855 378.214C4.26437 378.216 2.90762 377.606 1.90673 376.52C0.905836 375.433 0.342772 373.958 0.341481 372.42Z" fill="#547DBF"/>
<path d="M68.5994 404.683C68.5985 403.535 68.9106 402.413 69.4964 401.458C70.0821 400.503 70.915 399.758 71.8899 399.318C72.8647 398.879 73.9375 398.763 74.9724 398.987C76.0074 399.211 76.958 399.764 77.7038 400.576C78.4496 401.388 78.957 402.423 79.162 403.549C79.3671 404.675 79.2604 405.842 78.8555 406.902C78.4506 407.962 77.7655 408.868 76.8873 409.505C76.009 410.141 74.9771 410.48 73.9218 410.478C73.2223 410.479 72.5295 410.329 71.8831 410.038C71.2368 409.747 70.6495 409.321 70.155 408.782C69.6606 408.244 69.2688 407.605 69.0019 406.901C68.7349 406.198 68.5982 405.444 68.5994 404.683Z" fill="#547DBF"/>
<path d="M34.485 404.72C34.4841 403.572 34.7962 402.45 35.382 401.495C35.9677 400.54 36.8008 399.795 37.7756 399.355C38.7505 398.916 39.8231 398.801 40.858 399.024C41.893 399.248 42.8436 399.801 43.5894 400.613C44.3352 401.425 44.8428 402.46 45.0478 403.586C45.2529 404.712 45.1461 405.879 44.7411 406.939C44.3362 407.999 43.6513 408.905 42.7731 409.542C41.8948 410.178 40.8627 410.517 39.8075 410.515C38.3958 410.512 37.0428 409.901 36.0451 408.815C35.0474 407.729 34.4863 406.256 34.485 404.72Z" fill="#547DBF"/>
<path d="M0.370777 404.756C0.369815 403.609 0.68171 402.487 1.26682 401.533C1.85192 400.578 2.68402 399.833 3.65798 399.393C4.63194 398.953 5.70404 398.837 6.73857 399.059C7.7731 399.282 8.72353 399.833 9.46993 400.644C10.2163 401.454 10.7251 402.487 10.9318 403.612C11.1385 404.737 11.0338 405.904 10.6311 406.964C10.2284 408.025 9.54586 408.932 8.66952 409.57C7.79318 410.209 6.76245 410.55 5.70785 410.551C4.29367 410.553 2.93692 409.943 1.93602 408.857C0.935133 407.77 0.372069 406.295 0.370777 404.756Z" fill="#547DBF"/>
</svg>
