<svg width="80" height="411" viewBox="0 0 80 411" fill="none" xmlns="http://www.w3.org/2000/svg">
<path d="M68.2352 5.81359C68.2342 4.66558 68.5464 3.54301 69.1321 2.58801C69.7179 1.63301 70.5508 0.888528 71.5256 0.448789C72.5004 0.00905004 73.5732 -0.106159 74.6082 0.117751C75.6431 0.341663 76.5937 0.894615 77.3395 1.70662C78.0853 2.51862 78.5928 3.55316 78.7978 4.67925C79.0028 5.80534 78.8962 6.97234 78.4912 8.03253C78.0863 9.09272 77.4013 9.99841 76.523 10.6349C75.6448 11.2715 74.6128 11.6102 73.5576 11.6083C72.858 11.6091 72.1652 11.4598 71.5189 11.1689C70.8725 10.8779 70.2852 10.451 69.7908 9.91274C69.2963 9.37444 68.9046 8.73527 68.6376 8.03186C68.3706 7.32846 68.2339 6.57464 68.2352 5.81359Z" fill="#547DBF"/>
<path d="M34.1208 5.8507C34.1198 4.70269 34.432 3.58012 35.0177 2.62512C35.6035 1.67012 36.4366 0.925637 37.4114 0.485899C38.3862 0.0461594 39.4588 -0.0690497 40.4938 0.154861C41.5287 0.378772 42.4793 0.931725 43.2251 1.74373C43.971 2.55573 44.4785 3.59027 44.6836 4.71636C44.8886 5.84245 44.7818 7.00945 44.3769 8.06964C43.9719 9.12983 43.2871 10.0355 42.4088 10.6721C41.5305 11.3086 40.4984 11.6473 39.4432 11.6454C38.0316 11.6429 36.6786 11.0314 35.6808 9.94518C34.6831 8.85891 34.1221 7.38646 34.1208 5.8507Z" fill="#547DBF"/>
<path d="M68.2674 40.8463C68.2664 39.6983 68.5786 38.5757 69.1643 37.6207C69.7501 36.6657 70.583 35.9212 71.5578 35.4815C72.5326 35.0417 73.6055 34.9265 74.6404 35.1504C75.6753 35.3743 76.6259 35.9273 77.3718 36.7393C78.1176 37.5513 78.625 38.5859 78.83 39.712C79.035 40.8381 78.9284 42.0051 78.5235 43.0652C78.1185 44.1254 77.4335 45.0311 76.5552 45.6677C75.677 46.3042 74.645 46.6429 73.5898 46.641C72.8903 46.6419 72.1974 46.4925 71.5511 46.2016C70.9047 45.9106 70.3174 45.4837 69.823 44.9454C69.3286 44.4071 68.9368 43.768 68.6698 43.0646C68.4029 42.3612 68.2661 41.6074 68.2674 40.8463Z" fill="#547DBF"/>
<path d="M34.153 40.8829C34.1521 39.7349 34.4642 38.6123 35.0499 37.6573C35.6357 36.7023 36.4688 35.9578 37.4436 35.5181C38.4184 35.0783 39.4911 34.9631 40.526 35.187C41.5609 35.411 42.5115 35.964 43.2574 36.776C44.0032 37.588 44.5108 38.6225 44.7158 39.7486C44.9208 40.8747 44.814 42.0417 44.4091 43.1019C44.0041 44.1621 43.3193 45.0677 42.441 45.7043C41.5628 46.3408 40.5307 46.6796 39.4754 46.6777C38.0638 46.6751 36.7108 46.0636 35.7131 44.9774C34.7153 43.8911 34.1543 42.4187 34.153 40.8829Z" fill="#547DBF"/>
<path d="M0.0387462 40.9201C0.0377834 39.7727 0.349679 38.6508 0.934785 37.6961C1.51989 36.7415 2.35199 35.9969 3.32595 35.5567C4.29991 35.1165 5.37201 35.0004 6.40654 35.223C7.44107 35.4456 8.3915 35.997 9.1379 36.8074C9.8843 37.6178 10.393 38.6509 10.5997 39.7759C10.8064 40.9009 10.7018 42.0674 10.2991 43.1279C9.8964 44.1884 9.21383 45.0952 8.33749 45.7337C7.46115 46.3721 6.43042 46.7135 5.37582 46.7148C3.96163 46.7164 2.60488 46.1068 1.60399 45.0201C0.603102 43.9334 0.0400374 42.4586 0.0387462 40.9201Z" fill="#547DBF"/>
<path d="M68.2996 75.879C68.2987 74.731 68.6108 73.6084 69.1966 72.6534C69.7823 71.6984 70.6152 70.9539 71.5901 70.5142C72.5649 70.0744 73.6377 69.9592 74.6726 70.1831C75.7075 70.407 76.6582 70.96 77.404 71.772C78.1498 72.584 78.6572 73.6185 78.8622 74.7446C79.0673 75.8707 78.9606 77.0378 78.5557 78.098C78.1508 79.1582 77.4657 80.0638 76.5875 80.7004C75.7092 81.3369 74.6773 81.6757 73.622 81.6737C72.9225 81.6746 72.2297 81.5252 71.5833 81.2342C70.937 80.9433 70.3496 80.5164 69.8552 79.9781C69.3608 79.4398 68.969 78.8006 68.7021 78.0972C68.4351 77.3938 68.2983 76.64 68.2996 75.879Z" fill="#547DBF"/>
<path d="M34.1852 75.9156C34.1843 74.7676 34.4964 73.645 35.0822 72.69C35.6679 71.735 36.501 70.9905 37.4758 70.5508C38.4507 70.1111 39.5233 69.9958 40.5582 70.2198C41.5932 70.4437 42.5438 70.9966 43.2896 71.8086C44.0354 72.6206 44.543 73.6552 44.748 74.7813C44.9531 75.9073 44.8462 77.0744 44.4413 78.1346C44.0364 79.1948 43.3515 80.1005 42.4733 80.737C41.595 81.3735 40.5629 81.7123 39.5077 81.7104C38.096 81.7078 36.743 81.0963 35.7453 80.0101C34.7476 78.9238 34.1865 77.4514 34.1852 75.9156Z" fill="#547DBF"/>
<path d="M0.0699962 75.9522C0.0690333 74.8049 0.380928 73.683 0.966035 72.7283C1.55114 71.7737 2.38324 71.0292 3.3572 70.5889C4.33116 70.1487 5.40326 70.0326 6.43779 70.2552C7.47232 70.4779 8.42275 71.0292 9.16915 71.8396C9.91555 72.65 10.4243 73.6831 10.631 74.8081C10.8377 75.9332 10.733 77.0997 10.3303 78.1601C9.92765 79.2206 9.24508 80.1274 8.36874 80.7658C7.4924 81.4043 6.46167 81.7458 5.40707 81.747C3.99288 81.7487 2.63613 81.1391 1.63524 80.0523C0.634352 78.9656 0.0712874 77.4908 0.0699962 75.9522Z" fill="#547DBF"/>
<path d="M68.3319 110.91C68.3309 109.762 68.643 108.64 69.2288 107.685C69.8146 106.73 70.6475 105.985 71.6223 105.545C72.5971 105.106 73.6699 104.991 74.7048 105.214C75.7398 105.438 76.6904 105.991 77.4362 106.803C78.182 107.615 78.6894 108.65 78.8945 109.776C79.0995 110.902 78.9929 112.069 78.5879 113.129C78.183 114.189 77.498 115.095 76.6197 115.732C75.7414 116.368 74.7095 116.707 73.6543 116.705C72.9547 116.706 72.2619 116.557 71.6155 116.266C70.9692 115.975 70.3819 115.548 69.8875 115.009C69.393 114.471 69.0012 113.832 68.7343 113.129C68.4673 112.425 68.3306 111.671 68.3319 110.91Z" fill="#547DBF"/>
<path d="M34.2165 110.947C34.2155 109.799 34.5277 108.676 35.1134 107.721C35.6992 106.766 36.5323 106.022 37.5071 105.582C38.4819 105.142 39.5545 105.027 40.5895 105.251C41.6244 105.475 42.575 106.028 43.3208 106.84C44.0667 107.652 44.5742 108.686 44.7793 109.813C44.9843 110.939 44.8775 112.106 44.4726 113.166C44.0676 114.226 43.3828 115.132 42.5045 115.768C41.6262 116.405 40.5941 116.744 39.5389 116.742C38.1273 116.739 36.7743 116.128 35.7765 115.041C34.7788 113.955 34.2178 112.483 34.2165 110.947Z" fill="#547DBF"/>
<path d="M0.101765 110.984C0.0863047 109.835 0.384961 108.706 0.959879 107.742C1.5348 106.778 2.36012 106.021 3.33098 105.567C4.30185 105.114 5.37451 104.985 6.41298 105.196C7.45145 105.407 8.40893 105.948 9.16381 106.752C9.91868 107.556 10.437 108.586 10.653 109.711C10.869 110.836 10.773 112.006 10.377 113.071C9.98109 114.137 9.30301 115.051 8.42903 115.697C7.55506 116.342 6.52452 116.691 5.46809 116.699C4.06145 116.709 2.70822 116.114 1.7031 115.044C0.697977 113.973 0.12235 112.514 0.101765 110.984Z" fill="#547DBF"/>
<path d="M68.3631 145.942C68.3622 144.794 68.6743 143.672 69.26 142.717C69.8458 141.762 70.6787 141.017 71.6535 140.578C72.6283 140.138 73.7012 140.023 74.7361 140.247C75.771 140.471 76.7216 141.024 77.4675 141.836C78.2133 142.648 78.7207 143.682 78.9257 144.808C79.1308 145.934 79.0241 147.101 78.6192 148.161C78.2142 149.222 77.5292 150.127 76.651 150.764C75.7727 151.4 74.7407 151.739 73.6855 151.737C72.9854 151.74 72.2917 151.592 71.6445 151.302C70.9972 151.012 70.4092 150.585 69.9144 150.046C69.4196 149.508 69.0279 148.868 68.7616 148.163C68.4953 147.459 68.3599 146.704 68.3631 145.942Z" fill="#547DBF"/>
<path d="M34.2487 145.98C34.2478 144.832 34.5599 143.709 35.1457 142.754C35.7314 141.799 36.5645 141.054 37.5393 140.615C38.5141 140.175 39.5868 140.06 40.6217 140.284C41.6566 140.508 42.6073 141.061 43.3531 141.873C44.0989 142.685 44.6065 143.719 44.8115 144.845C45.0165 145.971 44.9097 147.138 44.5048 148.199C44.0998 149.259 43.415 150.164 42.5367 150.801C41.6585 151.437 40.6264 151.776 39.5711 151.774C38.8716 151.775 38.1788 151.626 37.5324 151.335C36.886 151.044 36.2989 150.617 35.8045 150.079C35.3101 149.54 34.9181 148.901 34.6511 148.198C34.3842 147.494 34.2474 146.741 34.2487 145.98Z" fill="#547DBF"/>
<path d="M0.134724 146.016C0.125079 144.868 0.428827 143.743 1.00733 142.783C1.58583 141.822 2.41308 141.07 3.38453 140.622C4.35597 140.173 5.4278 140.049 6.46438 140.263C7.50097 140.478 8.45577 141.022 9.20771 141.828C9.95965 142.633 10.4749 143.663 10.6885 144.787C10.9021 145.911 10.8042 147.079 10.4073 148.143C10.0105 149.207 9.33255 150.118 8.45916 150.763C7.58577 151.407 6.55628 151.755 5.50108 151.763C4.80155 151.77 4.10753 151.627 3.45897 151.342C2.81041 151.057 2.2201 150.635 1.7216 150.101C1.22309 149.567 0.826232 148.932 0.553946 148.231C0.281659 147.53 0.139193 146.777 0.134724 146.016Z" fill="#547DBF"/>
<path d="M68.3924 178.297C68.3886 177.149 68.6982 176.024 69.2822 175.067C69.8662 174.11 70.6981 173.363 71.6726 172.921C72.6472 172.479 73.7206 172.361 74.7564 172.584C75.7923 172.806 76.7443 173.357 77.4916 174.169C78.2388 174.98 78.7477 176.015 78.9539 177.141C79.1602 178.268 79.0544 179.435 78.6499 180.497C78.2454 181.558 77.5604 182.464 76.6819 183.102C75.8033 183.739 74.7707 184.078 73.7148 184.076C72.3045 184.078 70.9513 183.47 69.9532 182.386C68.955 181.302 68.3937 179.832 68.3924 178.297Z" fill="#547DBF"/>
<path d="M34.279 178.334C34.2751 177.186 34.5848 176.062 35.1688 175.104C35.7528 174.147 36.5848 173.4 37.5594 172.958C38.534 172.516 39.6071 172.399 40.643 172.621C41.6789 172.843 42.6309 173.394 43.3781 174.206C44.1254 175.017 44.6345 176.052 44.8407 177.178C45.0469 178.305 44.941 179.473 44.5365 180.534C44.132 181.595 43.447 182.501 42.5684 183.139C41.6899 183.776 40.6573 184.115 39.6014 184.113C38.1923 184.111 36.8415 183.501 35.8442 182.419C34.8469 181.336 34.2842 179.867 34.279 178.334Z" fill="#547DBF"/>
<path d="M0.16375 178.371C0.159887 177.223 0.469293 176.1 1.05263 175.143C1.63597 174.186 2.46705 173.439 3.44075 172.996C4.41445 172.554 5.48692 172.435 6.52241 172.656C7.5579 172.877 8.50984 173.427 9.2577 174.237C10.0056 175.047 10.5158 176.08 10.7236 177.205C10.9315 178.331 10.8278 179.498 10.4255 180.559C10.0233 181.621 9.34056 182.528 8.46391 183.168C7.58726 183.807 6.55604 184.149 5.50081 184.15C4.08916 184.151 2.73464 183.544 1.73417 182.461C0.733707 181.378 0.168918 179.907 0.16375 178.371Z" fill="#547DBF"/>
<path d="M68.4227 210.668C68.4217 209.52 68.7339 208.397 69.3196 207.442C69.9054 206.487 70.7383 205.743 71.7131 205.303C72.6879 204.864 73.7607 204.748 74.7957 204.972C75.8306 205.196 76.7812 205.749 77.527 206.561C78.2728 207.373 78.7803 208.408 78.9853 209.534C79.1903 210.66 79.0837 211.827 78.6787 212.887C78.2738 213.947 77.5888 214.853 76.7105 215.489C75.8323 216.126 74.8003 216.465 73.7451 216.463C73.0455 216.464 72.3527 216.314 71.7064 216.023C71.06 215.732 70.4727 215.305 69.9783 214.767C69.4838 214.229 69.0921 213.59 68.8251 212.886C68.5581 212.183 68.4214 211.429 68.4227 210.668Z" fill="#547DBF"/>
<path d="M34.3083 210.705C34.3073 209.557 34.6195 208.434 35.2052 207.479C35.791 206.524 36.6241 205.78 37.5989 205.34C38.5737 204.9 39.6463 204.785 40.6813 205.009C41.7162 205.233 42.6668 205.786 43.4126 206.598C44.1585 207.41 44.666 208.444 44.8711 209.57C45.0761 210.696 44.9693 211.863 44.5644 212.924C44.1594 213.984 43.4746 214.89 42.5963 215.526C41.718 216.163 40.6859 216.501 39.6307 216.499C38.2191 216.497 36.8661 215.885 35.8683 214.799C34.8706 213.713 34.3096 212.24 34.3083 210.705Z" fill="#547DBF"/>
<path d="M0.19402 210.741C0.193057 209.594 0.504952 208.472 1.09006 207.517C1.67517 206.563 2.50726 205.818 3.48122 205.378C4.45518 204.938 5.52729 204.822 6.56182 205.044C7.59634 205.267 8.54678 205.818 9.29318 206.629C10.0396 207.439 10.5483 208.472 10.755 209.597C10.9617 210.722 10.8571 211.889 10.4544 212.949C10.0517 214.01 9.3691 214.916 8.49276 215.555C7.61643 216.193 6.5857 216.535 5.53109 216.536C4.11691 216.538 2.76016 215.928 1.75927 214.841C0.758376 213.755 0.195311 212.28 0.19402 210.741Z" fill="#547DBF"/>
<path d="M68.452 242.974C68.451 241.826 68.7632 240.704 69.3489 239.749C69.9347 238.794 70.7676 238.049 71.7424 237.609C72.7172 237.17 73.79 237.054 74.825 237.278C75.8599 237.502 76.8105 238.055 77.5563 238.867C78.3021 239.679 78.8096 240.714 79.0146 241.84C79.2196 242.966 79.113 244.133 78.708 245.193C78.3031 246.253 77.6181 247.159 76.7398 247.796C75.8616 248.432 74.8296 248.771 73.7744 248.769C73.0748 248.77 72.382 248.62 71.7357 248.329C71.0893 248.039 70.502 247.612 70.0076 247.073C69.5131 246.535 69.1214 245.896 68.8544 245.192C68.5874 244.489 68.4507 243.735 68.452 242.974Z" fill="#547DBF"/>
<path d="M34.3376 243.011C34.3366 241.863 34.6488 240.74 35.2345 239.785C35.8203 238.83 36.6534 238.086 37.6282 237.646C38.603 237.206 39.6756 237.091 40.7106 237.315C41.7455 237.539 42.6961 238.092 43.4419 238.904C44.1877 239.716 44.6953 240.75 44.9004 241.876C45.1054 243.003 44.9986 244.17 44.5937 245.23C44.1887 246.29 43.5039 247.196 42.6256 247.832C41.7473 248.469 40.7152 248.807 39.66 248.806C38.2483 248.803 36.8954 248.192 35.8976 247.105C34.8999 246.019 34.3389 244.547 34.3376 243.011Z" fill="#547DBF"/>
<path d="M0.223317 243.049C0.222354 241.902 0.534249 240.78 1.11936 239.825C1.70446 238.87 2.53656 238.126 3.51052 237.686C4.48448 237.245 5.55658 237.129 6.59111 237.352C7.62564 237.575 8.57607 238.126 9.32247 238.936C10.0689 239.747 10.5776 240.78 10.7843 241.905C10.991 243.03 10.8864 244.196 10.4837 245.257C10.081 246.317 9.3984 247.224 8.52206 247.863C7.64572 248.501 6.61499 248.842 5.56039 248.844C4.1462 248.845 2.78945 248.236 1.78856 247.149C0.787672 246.062 0.224608 244.587 0.223317 243.049Z" fill="#547DBF"/>
<path d="M68.4813 275.313C68.4803 274.165 68.7924 273.042 69.3782 272.087C69.964 271.132 70.7969 270.388 71.7717 269.948C72.7465 269.509 73.8193 269.393 74.8543 269.617C75.8892 269.841 76.8398 270.394 77.5856 271.206C78.3314 272.018 78.8389 273.053 79.0439 274.179C79.2489 275.305 79.1423 276.472 78.7373 277.532C78.3324 278.592 77.6474 279.498 76.7691 280.134C75.8909 280.771 74.8589 281.11 73.8037 281.108C73.1036 281.111 72.4099 280.963 71.7626 280.673C71.1154 280.382 70.5274 279.956 70.0326 279.417C69.5378 278.878 69.146 278.238 68.8798 277.534C68.6135 276.83 68.478 276.075 68.4813 275.313Z" fill="#547DBF"/>
<path d="M34.3669 275.35C34.3659 274.202 34.6781 273.079 35.2638 272.124C35.8496 271.169 36.6827 270.425 37.6575 269.985C38.6323 269.545 39.7049 269.43 40.7399 269.654C41.7748 269.878 42.7254 270.431 43.4712 271.243C44.217 272.055 44.7246 273.089 44.9297 274.215C45.1347 275.341 45.0279 276.508 44.6229 277.569C44.218 278.629 43.5332 279.535 42.6549 280.171C41.7766 280.808 40.7445 281.146 39.6893 281.144C38.9897 281.145 38.2969 280.996 37.6506 280.705C37.0042 280.414 36.4171 279.987 35.9227 279.449C35.4282 278.911 35.0363 278.271 34.7693 277.568C34.5023 276.865 34.3656 276.111 34.3669 275.35Z" fill="#547DBF"/>
<path d="M0.252614 275.387C0.251651 274.239 0.563547 273.118 1.14865 272.163C1.73376 271.208 2.56585 270.464 3.53981 270.024C4.51378 269.583 5.58588 269.467 6.62041 269.69C7.65494 269.912 8.60537 270.464 9.35177 271.274C10.0982 272.085 10.6069 273.118 10.8136 274.243C11.0203 275.368 10.9157 276.534 10.513 277.595C10.1103 278.655 9.42769 279.562 8.55136 280.2C7.67502 280.839 6.64429 281.18 5.58968 281.182C4.88891 281.184 4.19454 281.037 3.54649 280.747C2.89844 280.457 2.30955 280.03 1.81357 279.492C1.3176 278.953 0.924338 278.313 0.656464 277.609C0.388591 276.904 0.25132 276.149 0.252614 275.387Z" fill="#547DBF"/>
<path d="M68.5115 307.652C68.5106 306.504 68.8227 305.381 69.4085 304.426C69.9942 303.471 70.8272 302.727 71.802 302.287C72.7768 301.847 73.8496 301.732 74.8845 301.956C75.9195 302.18 76.8701 302.733 77.6159 303.545C78.3617 304.357 78.8691 305.392 79.0742 306.518C79.2792 307.644 79.1726 308.811 78.7676 309.871C78.3627 310.931 77.6777 311.837 76.7994 312.473C75.9211 313.11 74.8892 313.449 73.834 313.447C73.1344 313.448 72.4416 313.298 71.7952 313.007C71.1489 312.716 70.5616 312.289 70.0671 311.751C69.5727 311.213 69.1809 310.574 68.914 309.87C68.647 309.167 68.5103 308.413 68.5115 307.652Z" fill="#547DBF"/>
<path d="M34.3962 307.689C34.3952 306.541 34.7074 305.418 35.2931 304.463C35.8789 303.508 36.712 302.764 37.6868 302.324C38.6616 301.884 39.7342 301.769 40.7692 301.993C41.8041 302.217 42.7547 302.77 43.5005 303.582C44.2463 304.394 44.7539 305.429 44.959 306.555C45.164 307.681 45.0572 308.848 44.6522 309.908C44.2473 310.968 43.5625 311.874 42.6842 312.51C41.8059 313.147 40.7738 313.486 39.7186 313.484C38.3069 313.481 36.954 312.87 35.9562 311.784C34.9585 310.697 34.3975 309.225 34.3962 307.689Z" fill="#547DBF"/>
<path d="M0.28191 307.726C0.280947 306.578 0.592843 305.456 1.17795 304.502C1.76306 303.547 2.59515 302.803 3.56911 302.362C4.54307 301.922 5.61518 301.806 6.64971 302.029C7.68424 302.251 8.63467 302.803 9.38107 303.613C10.1275 304.423 10.6362 305.457 10.8429 306.582C11.0496 307.707 10.9449 308.873 10.5423 309.934C10.1396 310.994 9.45699 311.901 8.58065 312.539C7.70432 313.178 6.67359 313.519 5.61898 313.52C4.2048 313.522 2.84805 312.913 1.84716 311.826C0.846266 310.739 0.283201 309.264 0.28191 307.726Z" fill="#547DBF"/>
<path d="M68.5408 340.007C68.5399 338.859 68.852 337.737 69.4378 336.782C70.0235 335.827 70.8565 335.082 71.8313 334.643C72.8061 334.203 73.8789 334.088 74.9138 334.312C75.9488 334.535 76.8994 335.088 77.6452 335.9C78.391 336.712 78.8984 337.747 79.1035 338.873C79.3085 339.999 79.2018 341.166 78.7969 342.226C78.392 343.287 77.707 344.192 76.8287 344.829C75.9504 345.465 74.9185 345.804 73.8633 345.802C73.1637 345.803 72.4709 345.654 71.8245 345.363C71.1782 345.072 70.5909 344.645 70.0964 344.107C69.602 343.568 69.2102 342.929 68.9433 342.226C68.6763 341.522 68.5396 340.768 68.5408 340.007Z" fill="#547DBF"/>
<path d="M34.4255 340.044C34.4245 338.896 34.7367 337.773 35.3224 336.818C35.9082 335.863 36.7413 335.119 37.7161 334.679C38.6909 334.239 39.7635 334.124 40.7985 334.348C41.8334 334.572 42.784 335.125 43.5298 335.937C44.2756 336.749 44.7832 337.784 44.9883 338.91C45.1933 340.036 45.0865 341.203 44.6815 342.263C44.2766 343.323 43.5918 344.229 42.7135 344.865C41.8352 345.502 40.8031 345.841 39.7479 345.839C38.3362 345.836 36.9833 345.225 35.9855 344.139C34.9878 343.052 34.4268 341.58 34.4255 340.044Z" fill="#547DBF"/>
<path d="M0.311207 340.081C0.310244 338.933 0.622139 337.811 1.20725 336.857C1.79235 335.902 2.62445 335.158 3.59841 334.717C4.57237 334.277 5.64447 334.161 6.679 334.384C7.71353 334.606 8.66396 335.158 9.41036 335.968C10.1568 336.778 10.6655 337.811 10.8722 338.937C11.0789 340.062 10.9742 341.228 10.5716 342.289C10.1689 343.349 9.48629 344.256 8.60995 344.894C7.73361 345.533 6.70288 345.874 5.64828 345.875C4.2341 345.877 2.87734 345.267 1.87645 344.181C0.875563 343.094 0.312498 341.619 0.311207 340.081Z" fill="#547DBF"/>
<path d="M68.5701 372.345C68.5692 371.197 68.8813 370.074 69.4671 369.119C70.0528 368.164 70.8857 367.42 71.8606 366.98C72.8354 366.54 73.9082 366.425 74.9431 366.649C75.9781 366.873 76.9287 367.426 77.6745 368.238C78.4203 369.05 78.9277 370.084 79.1328 371.21C79.3378 372.337 79.2311 373.504 78.8262 374.564C78.4213 375.624 77.7362 376.53 76.858 377.166C75.9797 377.803 74.9478 378.141 73.8926 378.14C73.193 378.14 72.5002 377.991 71.8538 377.7C71.2075 377.409 70.6202 376.982 70.1257 376.444C69.6313 375.906 69.2395 375.266 68.9726 374.563C68.7056 373.86 68.5689 373.106 68.5701 372.345Z" fill="#547DBF"/>
<path d="M34.4558 372.381C34.4548 371.233 34.7669 370.111 35.3527 369.156C35.9384 368.201 36.7715 367.456 37.7463 367.017C38.7212 366.577 39.7938 366.462 40.8287 366.686C41.8637 366.909 42.8143 367.462 43.5601 368.274C44.3059 369.086 44.8135 370.121 45.0185 371.247C45.2236 372.373 45.1168 373.54 44.7118 374.6C44.3069 375.661 43.622 376.566 42.7438 377.203C41.8655 377.839 40.8334 378.178 39.7782 378.176C38.3665 378.174 37.0135 377.562 36.0158 376.476C35.0181 375.39 34.457 373.917 34.4558 372.381Z" fill="#547DBF"/>
<path d="M0.341481 372.42C0.340518 371.272 0.652413 370.15 1.23752 369.196C1.82263 368.241 2.65472 367.496 3.62868 367.056C4.60264 366.616 5.67475 366.5 6.70928 366.723C7.74381 366.945 8.69424 367.497 9.44064 368.307C10.187 369.117 10.6958 370.15 10.9025 371.275C11.1092 372.4 11.0045 373.567 10.6018 374.627C10.1991 375.688 9.51656 376.595 8.64022 377.233C7.76389 377.872 6.73316 378.213 5.67855 378.214C4.26437 378.216 2.90762 377.606 1.90673 376.52C0.905836 375.433 0.342772 373.958 0.341481 372.42Z" fill="#547DBF"/>
<path d="M68.5994 404.684C68.5985 403.536 68.9106 402.413 69.4964 401.458C70.0821 400.503 70.915 399.759 71.8899 399.319C72.8647 398.879 73.9375 398.764 74.9724 398.988C76.0074 399.212 76.958 399.765 77.7038 400.577C78.4496 401.389 78.957 402.423 79.162 403.549C79.3671 404.675 79.2604 405.842 78.8555 406.903C78.4506 407.963 77.7655 408.869 76.8873 409.505C76.009 410.142 74.9771 410.48 73.9218 410.478C73.2223 410.479 72.5295 410.33 71.8831 410.039C71.2368 409.748 70.6495 409.321 70.155 408.783C69.6606 408.245 69.2688 407.605 69.0019 406.902C68.7349 406.199 68.5982 405.445 68.5994 404.684Z" fill="#547DBF"/>
<path d="M34.485 404.72C34.4841 403.572 34.7962 402.45 35.382 401.495C35.9677 400.54 36.8008 399.795 37.7756 399.355C38.7505 398.916 39.8231 398.801 40.858 399.024C41.893 399.248 42.8436 399.801 43.5894 400.613C44.3352 401.425 44.8428 402.46 45.0478 403.586C45.2529 404.712 45.1461 405.879 44.7411 406.939C44.3362 407.999 43.6513 408.905 42.7731 409.542C41.8948 410.178 40.8627 410.517 39.8075 410.515C38.3958 410.512 37.0428 409.901 36.0451 408.815C35.0474 407.729 34.4863 406.256 34.485 404.72Z" fill="#547DBF"/>
<path d="M0.370777 404.757C0.369815 403.61 0.68171 402.488 1.26682 401.534C1.85192 400.579 2.68402 399.834 3.65798 399.394C4.63194 398.954 5.70404 398.838 6.73857 399.06C7.7731 399.283 8.72353 399.834 9.46993 400.645C10.2163 401.455 10.7251 402.488 10.9318 403.613C11.1385 404.738 11.0338 405.905 10.6311 406.965C10.2284 408.026 9.54586 408.933 8.66952 409.571C7.79318 410.209 6.76245 410.551 5.70785 410.552C4.29367 410.554 2.93692 409.944 1.93602 408.858C0.935133 407.771 0.372069 406.296 0.370777 404.757Z" fill="#547DBF"/>
</svg>
