<svg width="337" height="305" viewBox="0 0 337 305" fill="none" xmlns="http://www.w3.org/2000/svg">
<mask id="path-1-inside-1_15_753" fill="white">
<path d="M277.118 303.557C276.766 263.764 269.215 224.436 254.895 187.818C240.575 151.201 219.767 118.011 193.659 90.1435C167.551 62.2761 136.655 40.277 102.733 25.4022C68.8114 10.5275 32.5294 3.06839 -4.04142 3.45086L-1.36482 306.469L277.118 303.557Z"/>
</mask>
<path d="M277.118 303.557C276.766 263.764 269.215 224.436 254.895 187.818C240.575 151.201 219.767 118.011 193.659 90.1435C167.551 62.2761 136.655 40.277 102.733 25.4022C68.8114 10.5275 32.5294 3.06839 -4.04142 3.45086L-1.36482 306.469L277.118 303.557Z" stroke="#FBBC04" stroke-width="4" mask="url(#path-1-inside-1_15_753)"/>
<mask id="path-2-inside-2_15_753" fill="white">
<path d="M245.433 289.003C245.135 255.367 238.752 222.124 226.648 191.171C214.544 160.219 196.955 132.164 174.887 108.609C152.818 85.0527 126.701 66.4572 98.0281 53.8838C69.3547 41.3104 38.6862 35.0054 7.77348 35.3287L10.036 291.465L245.433 289.003Z"/>
</mask>
<path d="M245.433 289.003C245.135 255.367 238.752 222.124 226.648 191.171C214.544 160.219 196.955 132.164 174.887 108.609C152.818 85.0527 126.701 66.4572 98.0281 53.8838C69.3547 41.3104 38.6862 35.0054 7.77348 35.3287L10.036 291.465L245.433 289.003Z" fill="url(#paint0_radial_15_753)" stroke="#FBBC04" stroke-width="4" mask="url(#path-2-inside-2_15_753)"/>
<mask id="path-3-inside-3_15_753" fill="white">
<path d="M224.415 289.223C224.144 258.59 218.331 228.315 207.307 200.126C196.284 171.938 180.266 146.388 160.167 124.935C140.069 103.482 116.284 86.5471 90.1713 75.0963C64.0581 63.6456 36.1278 57.9035 7.97515 58.1979L10.0356 291.465L224.415 289.223Z"/>
</mask>
<path d="M224.415 289.223C224.144 258.59 218.331 228.315 207.307 200.126C196.284 171.938 180.266 146.388 160.167 124.935C140.069 103.482 116.284 86.5471 90.1713 75.0963C64.0581 63.6456 36.1278 57.9035 7.97515 58.1979L10.0356 291.465L224.415 289.223Z" fill="url(#paint1_radial_15_753)" stroke="#FBBC12" stroke-width="4" mask="url(#path-3-inside-3_15_753)"/>
<ellipse cx="39.5022" cy="34.3902" rx="39.5022" ry="34.3902" transform="matrix(0.0108393 0.999941 -0.999918 0.0128332 310.971 170.677)" fill="url(#paint2_radial_15_753)"/>
<path d="M287.428 248.863C285.529 249.171 283.596 249.387 281.634 249.508L281.544 248.011C280.604 248.069 279.657 248.104 278.704 248.117C277.751 248.129 276.803 248.118 275.862 248.084L275.805 249.583C273.841 249.513 271.904 249.346 269.998 249.087L270.203 247.601C268.309 247.343 266.447 246.993 264.625 246.556L264.272 248.014C262.367 247.557 260.502 247.006 258.685 246.368L259.185 244.952C257.388 244.321 255.639 243.601 253.943 242.799L253.3 244.155C251.532 243.319 249.822 242.396 248.175 241.392L248.958 240.111C247.336 239.122 245.777 238.052 244.29 236.908L243.374 238.098C241.827 236.909 240.354 235.641 238.962 234.301L240.003 233.219C238.639 231.907 237.356 230.524 236.16 229.077L235.003 230.033C233.763 228.533 232.614 226.965 231.564 225.336L232.825 224.522C231.804 222.939 230.88 221.298 230.059 219.606L228.709 220.263C227.864 218.519 227.124 216.722 226.499 214.877L227.919 214.393C227.319 212.622 226.827 210.807 226.45 208.955L224.98 209.256C224.597 207.369 224.329 205.443 224.185 203.485L225.681 203.372C225.612 202.439 225.572 201.499 225.562 200.552C225.552 199.605 225.571 198.665 225.62 197.731L224.122 197.656C224.224 195.695 224.449 193.763 224.792 191.866L226.268 192.13C226.604 190.268 227.057 188.441 227.619 186.655L226.188 186.208C226.773 184.348 227.474 182.532 228.281 180.766L229.645 181.388C230.429 179.676 231.317 178.012 232.303 176.403L231.025 175.621C232.04 173.966 233.155 172.369 234.362 170.837L235.539 171.764C236.703 170.287 237.956 168.871 239.291 167.524L238.226 166.469C239.589 165.094 241.034 163.789 242.555 162.56L243.496 163.726C244.959 162.544 246.494 161.435 248.094 160.404L247.284 159.144C248.908 158.097 250.598 157.131 252.347 156.25L253.019 157.589C254.697 156.744 256.43 155.979 258.213 155.302L257.683 153.9C259.486 153.215 261.337 152.616 263.232 152.11L263.617 153.559C265.429 153.075 267.282 152.677 269.171 152.372L268.934 150.891C270.833 150.583 272.766 150.367 274.728 150.246L274.818 151.743C275.758 151.685 276.705 151.65 277.658 151.637C278.611 151.625 279.559 151.636 280.5 151.67L280.557 150.171C282.521 150.241 284.459 150.409 286.364 150.667L286.159 152.154C288.053 152.411 289.915 152.761 291.737 153.198L292.09 151.74C293.995 152.197 295.86 152.748 297.677 153.387L297.177 154.802C298.974 155.433 300.723 156.153 302.419 156.955L303.062 155.599C304.83 156.435 306.54 157.358 308.187 158.362L307.404 159.643C309.026 160.632 310.585 161.702 312.072 162.846L312.988 161.656C314.535 162.845 316.008 164.113 317.4 165.453L316.359 166.535C317.723 167.848 319.006 169.231 320.202 170.677L321.359 169.721C322.599 171.221 323.748 172.789 324.798 174.418L323.537 175.233C324.558 176.815 325.482 178.456 326.303 180.148L327.653 179.491C328.498 181.235 329.238 183.033 329.863 184.877L328.443 185.361C329.043 187.132 329.535 188.947 329.912 190.8L331.382 190.498C331.765 192.385 332.033 194.311 332.177 196.269L330.681 196.382C330.75 197.315 330.79 198.255 330.8 199.202C330.81 200.149 330.791 201.089 330.742 202.023L332.24 202.098C332.138 204.059 331.913 205.991 331.57 207.888L330.094 207.624C329.758 209.486 329.305 211.313 328.743 213.099L330.174 213.546C329.589 215.407 328.888 217.223 328.081 218.988L326.717 218.366C325.933 220.078 325.045 221.742 324.059 223.351L325.337 224.133C324.322 225.788 323.207 227.385 322 228.917L320.823 227.99C319.659 229.467 318.406 230.883 317.071 232.23L318.136 233.285C316.773 234.66 315.328 235.965 313.807 237.194L312.866 236.028C311.403 237.21 309.868 238.319 308.268 239.35L309.078 240.611C307.454 241.657 305.764 242.623 304.015 243.504L303.343 242.165C301.665 243.01 299.932 243.775 298.149 244.452L298.679 245.854C296.876 246.539 295.025 247.138 293.13 247.644L292.745 246.195C290.933 246.679 289.08 247.077 287.191 247.383L287.428 248.863Z" stroke="#FBBC04" stroke-width="3" stroke-dasharray="6 6"/>
<defs>
<radialGradient id="paint0_radial_15_753" cx="0" cy="0" r="1" gradientUnits="userSpaceOnUse" gradientTransform="translate(10.036 291.465) rotate(89.4939) scale(256.146 235.409)">
<stop stop-color="#FBBC04"/>
<stop offset="1" stop-color="#FBBC04"/>
</radialGradient>
<radialGradient id="paint1_radial_15_753" cx="0" cy="0" r="1" gradientUnits="userSpaceOnUse" gradientTransform="translate(10.0356 291.465) rotate(89.4939) scale(233.276 214.39)">
<stop stop-color="#FBBC04" stop-opacity="0"/>
<stop offset="1" stop-color="#FBBC04"/>
</radialGradient>
<radialGradient id="paint2_radial_15_753" cx="0" cy="0" r="1" gradientUnits="userSpaceOnUse" gradientTransform="translate(-26.7353 68.7805) rotate(-23.8076) scale(129.2 135.384)">
<stop stop-color="#FBBC04"/>
<stop offset="1" stop-color="#D9D9D9" stop-opacity="0"/>
</radialGradient>
</defs>
</svg>
