<svg width="922" height="440" viewBox="0 0 922 440" fill="none" xmlns="http://www.w3.org/2000/svg">
<mask id="mask0_16_1544" style="mask-type:luminance" maskUnits="userSpaceOnUse" x="-24" y="-133" width="971" height="744">
<path d="M946.534 -133H-24V611H946.534V-133Z" fill="white"/>
</mask>
<g mask="url(#mask0_16_1544)">
<path d="M946.346 21.0751L-29.8955 20.9639" stroke="#ADC9F2" stroke-width="0.57" stroke-miterlimit="10"/>
<path d="M946.346 46.705L-29.8955 46.5938" stroke="#ADC9F2" stroke-width="0.57" stroke-miterlimit="10"/>
<path d="M946.334 72.3413L-29.9072 72.23" stroke="#ADC9F2" stroke-width="0.57" stroke-miterlimit="10"/>
<path d="M946.334 97.9799L-29.9072 97.8687" stroke="#ADC9F2" stroke-width="0.57" stroke-miterlimit="10"/>
<path d="M946.308 123.616L-29.9336 123.505" stroke="#ADC9F2" stroke-width="0.57" stroke-miterlimit="10"/>
<path d="M946.308 149.251L-29.9336 149.14" stroke="#ADC9F2" stroke-width="0.57" stroke-miterlimit="10"/>
<path d="M946.307 174.889L-29.9531 174.789" stroke="#ADC9F2" stroke-width="0.57" stroke-miterlimit="10"/>
<path d="M946.288 200.53L-29.9531 200.43" stroke="#ADC9F2" stroke-width="0.57" stroke-miterlimit="10"/>
<path d="M946.288 226.164L-29.9531 226.063" stroke="#ADC9F2" stroke-width="0.57" stroke-miterlimit="10"/>
<path d="M946.271 251.802L-29.9707 251.702" stroke="#ADC9F2" stroke-width="0.57" stroke-miterlimit="10"/>
<path d="M946.271 277.438L-29.9707 277.338" stroke="#ADC9F2" stroke-width="0.57" stroke-miterlimit="10"/>
<path d="M946.255 303.081L-29.9863 302.98" stroke="#ADC9F2" stroke-width="0.57" stroke-miterlimit="10"/>
<path d="M946.255 328.723L-29.9863 328.612" stroke="#ADC9F2" stroke-width="0.57" stroke-miterlimit="10"/>
<path d="M946.253 354.359L-30.0068 354.248" stroke="#ADC9F2" stroke-width="0.57" stroke-miterlimit="10"/>
<path d="M946.234 379.998L-30.0068 379.887" stroke="#ADC9F2" stroke-width="0.57" stroke-miterlimit="10"/>
<path d="M946.234 405.634L-30.0068 405.523" stroke="#ADC9F2" stroke-width="0.57" stroke-miterlimit="10"/>
<path d="M946.218 431.27L-30.0234 431.159" stroke="#ADC9F2" stroke-width="0.57" stroke-miterlimit="10"/>
<path d="M891.896 687.647L892.156 -132.763" stroke="#ADC9F2" stroke-width="0.57" stroke-miterlimit="10"/>
<path d="M837.674 687.636L837.914 -132.763" stroke="#ADC9F2" stroke-width="0.57" stroke-miterlimit="10"/>
<path d="M783.431 687.627L783.691 -132.783" stroke="#ADC9F2" stroke-width="0.57" stroke-miterlimit="10"/>
<path d="M729.209 687.621L729.45 -132.789" stroke="#ADC9F2" stroke-width="0.57" stroke-miterlimit="10"/>
<path d="M674.966 687.621L675.226 -132.789" stroke="#ADC9F2" stroke-width="0.57" stroke-miterlimit="10"/>
<path d="M620.72 687.609L620.98 -132.801" stroke="#ADC9F2" stroke-width="0.57" stroke-miterlimit="10"/>
<path d="M566.506 687.598L566.746 -132.801" stroke="#ADC9F2" stroke-width="0.57" stroke-miterlimit="10"/>
<path d="M512.259 687.597L512.519 -132.813" stroke="#ADC9F2" stroke-width="0.57" stroke-miterlimit="10"/>
<path d="M458.008 687.585L458.268 -132.813" stroke="#ADC9F2" stroke-width="0.57" stroke-miterlimit="10"/>
<path d="M403.79 687.589L404.031 -132.821" stroke="#ADC9F2" stroke-width="0.57" stroke-miterlimit="10"/>
<path d="M349.548 687.578L349.808 -132.821" stroke="#ADC9F2" stroke-width="0.57" stroke-miterlimit="10"/>
<path d="M295.321 687.583L295.562 -132.827" stroke="#ADC9F2" stroke-width="0.57" stroke-miterlimit="10"/>
<path d="M241.079 687.572L241.339 -132.827" stroke="#ADC9F2" stroke-width="0.57" stroke-miterlimit="10"/>
<path d="M186.836 687.561L187.096 -132.849" stroke="#ADC9F2" stroke-width="0.57" stroke-miterlimit="10"/>
<path d="M132.619 687.55L132.86 -132.849" stroke="#ADC9F2" stroke-width="0.57" stroke-miterlimit="10"/>
<path d="M24.1289 687.545L24.3892 -132.865" stroke="#ADC9F2" stroke-width="0.57" stroke-miterlimit="10"/>
<path d="M78.3711 687.556L78.6314 -132.854" stroke="#ADC9F2" stroke-width="0.57" stroke-miterlimit="10"/>
</g>
</svg>
